<svg height="480pt" viewBox="0 0 480 480" width="480pt" xmlns="http://www.w3.org/2000/svg"><path d="m264 344h16v128h-16zm0 0" fill="#999"/><path d="m80 64v-48c0-8.839844 7.160156-16 16-16h32c8.839844 0 16 7.160156 16 16v48" fill="#4d4d4d"/><path d="m104 0h-8c-8.839844 0-16 7.160156-16 16v48h40v-48c0-8.839844-7.160156-16-16-16zm0 0" fill="#737373"/><path d="m0 128h224v48h-224zm0 0" fill="#4d4d4d"/><path d="m0 128h200v48h-200zm0 0" fill="#737373"/><path d="m16 128c0-35.34375 28.65625-64 64-64h64c35.34375 0 64 28.65625 64 64" fill="#999"/><path d="m120 64h-40c-35.34375 0-64 28.65625-64 64h168c0-35.34375-28.65625-64-64-64zm0 0" fill="#b3b3b3"/><path d="m192 480h-160l-16-304h192zm0 0" fill="#999"/><path d="m16 176 16 304h136l16-304zm0 0" fill="#b3b3b3"/><g fill="#f2b513"><path d="m256 32c15.113281-5.039062 26.960938-16.886719 32-32 5.039062 15.113281 16.886719 26.960938 32 32-15.113281 5.039062-26.960938 16.886719-32 32-5.039062-15.113281-16.886719-26.960938-32-32zm0 0"/><path d="m416 176c15.113281-5.039062 26.960938-16.886719 32-32 5.039062 15.113281 16.886719 26.960938 32 32-15.113281 5.039062-26.960938 16.886719-32 32-5.039062-15.113281-16.886719-26.960938-32-32zm0 0"/><path d="m352 416c15.113281-5.039062 26.960938-16.886719 32-32 5.039062 15.113281 16.886719 26.960938 32 32-15.113281 5.039062-26.960938 16.886719-32 32-5.039062-15.113281-16.886719-26.960938-32-32zm0 0"/></g><path d="m160 240h224l-112 112zm0 0" fill="#ccc"/><path d="m360 240h-200l100 100zm0 0" fill="#e6e6e6"/><path d="m208 288h128l-64 64zm0 0" fill="#bf393a"/><path d="m312 288h-104l52 52c15.839844-15.839844 52-52 52-52zm0 0" fill="#ff4c4d"/><path d="m232 464h80v16h-80zm0 0" fill="#999"/><path d="m312 288h-16v-88c0-2.121094.839844-4.160156 2.34375-5.65625l32-32 11.3125 11.3125-29.65625 29.65625zm0 0" fill="#999"/></svg>